<svg width="17" height="16" viewBox="0 0 17 16" fill="none" xmlns="http://www.w3.org/2000/svg">
<g id="briefcase" opacity="0.7">
<path id="Vector" d="M13.8039 4.65918H3.43741C2.72176 4.65918 2.1416 5.23933 2.1416 5.95499V12.434C2.1416 13.1497 2.72176 13.7299 3.43741 13.7299H13.8039C14.5196 13.7299 15.0997 13.1497 15.0997 12.434V5.95499C15.0997 5.23933 14.5196 4.65918 13.8039 4.65918Z" stroke="#3A6000" stroke-width="1.29581" stroke-linecap="round" stroke-linejoin="round"/>
<path id="Vector_2" d="M11.2123 13.7302V3.36368C11.2123 3.02001 11.0758 2.69042 10.8328 2.44741C10.5898 2.20439 10.2602 2.06787 9.91649 2.06787H7.32486C6.98119 2.06787 6.6516 2.20439 6.40859 2.44741C6.16558 2.69042 6.02905 3.02001 6.02905 3.36368V13.7302" stroke="#3A6000" stroke-width="1.29581" stroke-linecap="round" stroke-linejoin="round"/>
</g>
</svg>
