<svg width="17" height="17" viewBox="0 0 17 17" fill="none" xmlns="http://www.w3.org/2000/svg">
<g id="message-circle" opacity="0.7">
<path id="Vector" d="M14.2036 7.9911C14.2058 8.84625 14.006 9.68984 13.6204 10.4531C13.1633 11.3678 12.4605 12.1372 11.5908 12.675C10.7212 13.2128 9.71892 13.4979 8.69636 13.4983C7.84121 13.5005 6.99763 13.3007 6.23432 12.9152L2.54126 14.1462L3.77228 10.4531C3.38673 9.68984 3.18694 8.84625 3.18917 7.9911C3.18956 6.96855 3.47464 5.9663 4.01247 5.09662C4.5503 4.22693 5.31964 3.52416 6.23432 3.06702C6.99763 2.68147 7.84121 2.48168 8.69636 2.48391H9.02032C10.3708 2.55841 11.6463 3.12842 12.6027 4.08479C13.559 5.04116 14.1291 6.31669 14.2036 7.66715V7.9911Z" stroke="#3A6000" stroke-width="1.29581" stroke-linecap="round" stroke-linejoin="round"/>
</g>
</svg>
