<svg width="120" height="121" viewBox="0 0 120 121" fill="none" xmlns="http://www.w3.org/2000/svg">
<g id="carbon:badge">
<path id="Vector" d="M86.25 8.37695L92.2238 19.627L105 21.1795L95.625 29.6282L97.5 42.127L86.25 35.0957L75 42.127L76.875 29.6282L67.5 21.1795L80.625 19.627L86.25 8.37695Z" fill="url(#paint0_linear_66_2985)"/>
<path id="Vector_2" d="M86.4505 50.0852L79.183 48.2177C77.8803 53.2361 75.1194 57.7558 71.2492 61.2058C67.3789 64.6558 62.573 66.8813 57.4385 67.6012C52.304 68.3211 47.0713 67.503 42.4015 65.2503C37.7317 62.9977 33.8344 59.4115 31.2018 54.9448C28.5693 50.4781 27.3196 45.3314 27.6108 40.1549C27.9019 34.9784 29.7208 30.0042 32.8376 25.861C35.9544 21.7177 40.2293 18.5911 45.1223 16.8763C50.0152 15.1615 55.3066 14.9353 60.328 16.2264L62.1993 8.96267C54.8792 7.05861 47.1315 7.67147 40.2018 10.7027C33.2721 13.7339 27.5631 19.0074 23.9926 25.6753C20.4222 32.3432 19.1977 40.0181 20.5162 47.4659C21.8346 54.9138 25.6193 61.7019 31.2618 66.7389V112.901L53.7618 97.9014L76.2618 112.901V66.8064C81.2423 62.3674 84.789 56.5466 86.4505 50.0852ZM68.7618 98.8877L53.7618 88.8864L38.7618 98.8877V71.8389C43.4156 74.1768 48.551 75.3963 53.7591 75.4002C58.9672 75.4041 64.1044 74.1924 68.7618 71.8614V98.8877Z" fill="url(#paint1_linear_66_2985)"/>
</g>
<defs>
<linearGradient id="paint0_linear_66_2985" x1="86.25" y1="8.37695" x2="86.25" y2="42.127" gradientUnits="userSpaceOnUse">
<stop stop-color="#488000"/>
<stop offset="1" stop-color="#062800"/>
</linearGradient>
<linearGradient id="paint1_linear_66_2985" x1="53.2253" y1="7.87695" x2="53.2253" y2="112.901" gradientUnits="userSpaceOnUse">
<stop stop-color="#488000"/>
<stop offset="1" stop-color="#062800"/>
</linearGradient>
</defs>
</svg>
