<svg width="55" height="56" viewBox="0 0 55 56" fill="none" xmlns="http://www.w3.org/2000/svg">
<g id="Play">
<rect id="Rectangle 654" y="0.700195" width="55" height="55" rx="8" fill="#3A6000"/>
<path id="Vector" d="M42.3834 27.7002C42.3843 28.0919 42.2839 28.4773 42.0918 28.8187C41.8997 29.1601 41.6226 29.4461 41.2873 29.6487L20.5075 42.3605C20.1572 42.5751 19.7559 42.6922 19.3452 42.6998C18.9345 42.7074 18.5291 42.6052 18.1711 42.4038C17.8165 42.2055 17.521 41.9164 17.3152 41.5661C17.1094 41.2158 17.0006 40.8169 17 40.4106V14.9897C17.0006 14.5834 17.1094 14.1846 17.3152 13.8343C17.521 13.484 17.8165 13.1949 18.1711 12.9966C18.5291 12.7952 18.9345 12.693 19.3452 12.7006C19.7559 12.7082 20.1572 12.8253 20.5075 13.0398L41.2873 25.7517C41.6226 25.9543 41.8997 26.2402 42.0918 26.5817C42.2839 26.9231 42.3843 27.3084 42.3834 27.7002Z" fill="white"/>
</g>
</svg>
