<svg width="120" height="121" viewBox="0 0 120 121" fill="none" xmlns="http://www.w3.org/2000/svg">
<g id="ph:student-fill">
<path id="Vector" d="M106.186 27.3194L61.1859 12.3194C60.4161 12.0628 59.5839 12.0628 58.8141 12.3194L13.8141 27.3194C13.0674 27.5683 12.4179 28.0459 11.9577 28.6844C11.4975 29.323 11.2499 30.0901 11.25 30.8772V68.3772C11.25 69.3718 11.6451 70.3256 12.3483 71.0289C13.0516 71.7321 14.0054 72.1272 15 72.1272C15.9946 72.1272 16.9484 71.7321 17.6516 71.0289C18.3549 70.3256 18.75 69.3718 18.75 68.3772V36.0804L34.4953 41.3257C30.312 48.0841 28.9817 56.2265 30.7966 63.9649C32.6114 71.7033 37.4231 78.4053 44.175 82.5991C35.7375 85.9085 28.4438 91.8944 23.1094 100.079C22.8319 100.491 22.6392 100.954 22.5425 101.442C22.4457 101.929 22.4468 102.431 22.5457 102.918C22.6445 103.405 22.8392 103.868 23.1184 104.279C23.3976 104.69 23.7558 105.042 24.172 105.313C24.5883 105.585 25.0544 105.771 25.5432 105.86C26.032 105.95 26.5337 105.942 27.0193 105.836C27.5049 105.73 27.9646 105.529 28.3716 105.244C28.7787 104.959 29.1251 104.596 29.3906 104.176C36.4547 93.3382 47.6109 87.1272 60 87.1272C72.3891 87.1272 83.5453 93.3382 90.6094 104.176C91.1594 104.993 92.009 105.561 92.9746 105.757C93.9402 105.953 94.9441 105.761 95.7693 105.223C96.5946 104.685 97.1748 103.844 97.3847 102.881C97.5945 101.918 97.417 100.912 96.8906 100.079C91.5563 91.8944 84.2344 85.9085 75.825 82.5991C82.5704 78.4054 87.3775 71.7079 89.1921 63.9751C91.0067 56.2423 89.6806 48.1056 85.5047 41.3491L106.186 34.4585C106.933 34.2097 107.582 33.7322 108.043 33.0937C108.503 32.4551 108.751 31.6879 108.751 30.9007C108.751 30.1135 108.503 29.3462 108.043 28.7077C107.582 28.0691 106.933 27.5916 106.186 27.3429V27.3194ZM82.5 57.1272C82.501 60.6844 81.6586 64.1911 80.0419 67.3596C78.4253 70.5281 76.0804 73.2682 73.1997 75.355C70.319 77.4418 66.9845 78.8159 63.4699 79.3644C59.9554 79.913 56.3608 79.6205 52.9812 78.5108C49.6015 77.4012 46.5331 75.5061 44.0278 72.9809C41.5224 70.4558 39.6514 67.3726 38.5683 63.9844C37.4853 60.5962 37.2209 56.9994 37.7971 53.4892C38.3733 49.9791 39.7735 46.6555 41.8828 43.7913L58.8141 49.4163C59.5839 49.6729 60.4161 49.6729 61.1859 49.4163L78.1172 43.7913C80.9662 47.6538 82.5023 52.3277 82.5 57.1272Z" fill="url(#paint0_linear_66_2981)"/>
</g>
<defs>
<linearGradient id="paint0_linear_66_2981" x1="60.0004" y1="12.127" x2="60.0004" y2="105.922" gradientUnits="userSpaceOnUse">
<stop stop-color="#488000"/>
<stop offset="1" stop-color="#062800"/>
</linearGradient>
</defs>
</svg>
